<?xml version="1.0" encoding="iso-8859-1"?>
<!-- Generator: Adobe Illustrator 19.0.0, SVG Export Plug-In . SVG Version: 6.00 Build 0)  -->
<svg version="1.1" id="Layer_1" xmlns="http://www.w3.org/2000/svg" xmlns:xlink="http://www.w3.org/1999/xlink" x="0px" y="0px"
	 viewBox="0 0 512 512" style="enable-background:new 0 0 512 512;" xml:space="preserve">
<g>
	<g>
		<path d="M394.839,106.605c-2.66-3.414-7.587-4.023-10.998-1.364c-3.415,2.66-4.025,7.585-1.364,10.999
			c11.25,14.433,17.196,31.691,17.196,49.904v1.909H112.327v-1.909c0-44.927,36.551-81.479,81.479-81.479h124.39
			c2.354,0,4.69,0.101,7.005,0.298c0.157,0.02,0.317,0.032,0.477,0.043c10.212,0.929,20.031,3.768,29.274,8.481
			c3.857,1.965,8.575,0.435,10.542-3.421s0.434-8.576-3.421-10.542c-8.938-4.558-18.326-7.64-28.048-9.24v-20.15
			c0-4.328-3.508-7.837-7.837-7.837H303.68v-8.841C303.678,15.009,288.669,0,270.221,0h-28.442
			c-18.448,0-33.458,15.009-33.458,33.457v8.841h-22.507c-4.329,0-7.837,3.509-7.837,7.837v20.155
			c-46.067,7.581-81.324,47.676-81.324,95.856v221.688c0,18.504,5.281,36.534,15.271,52.14c1.496,2.337,4.025,3.613,6.607,3.613
			c1.446,0,2.91-0.4,4.218-1.238c3.645-2.333,4.708-7.181,2.374-10.825c-7.366-11.506-11.674-24.584-12.604-38.119h286.94
			c-2.876,42.336-38.214,75.908-81.267,75.908H193.805c-16.653,0-32.695-5.051-46.395-14.607c-3.552-2.476-8.435-1.606-10.911,1.944
			c-2.476,3.549-1.606,8.435,1.944,10.911c11.949,8.335,25.399,13.783,39.535,16.118v20.486c0,4.328,3.508,7.837,7.837,7.837
			h140.372c4.329,0,7.837-3.509,7.837-7.837V483.69c46.068-7.581,81.324-47.676,81.324-95.856V166.145
			C415.347,144.407,408.256,123.818,394.839,106.605z M193.651,57.971h44.408c4.329,0,7.837-3.509,7.837-7.837
			s-3.508-7.837-7.837-7.837h-14.064v-8.841c0-9.805,7.978-17.783,17.784-17.783h28.443c9.806,0,17.784,7.978,17.784,17.783v8.841
			h-13.199c-4.329,0-7.837,3.509-7.837,7.837s3.508,7.837,7.837,7.837h43.541v11.025c-0.051,0-0.102-0.002-0.154-0.002h-124.39
			c-0.051,0-0.102,0.002-0.154,0.002V57.971z M193.65,496.327v-11.344c0.051,0,0.102,0.003,0.154,0.003h124.39
			c0.051,0,0.102-0.002,0.154-0.002v11.343H193.65z M399.673,377.731H112.326V363.45h287.347V377.731z M399.673,347.778H112.326
			v-14.281h287.347V347.778z M399.673,317.823H112.326v-14.281h287.347V317.823z M399.673,287.869H112.326v-14.281h287.347V287.869z
			 M399.673,257.915H112.326v-14.281h287.347V257.915z M399.673,227.962H112.326v-14.281h287.347V227.962z M399.673,198.008H112.326
			v-14.281h287.347V198.008z"/>
	</g>
</g>
<g>
</g>
<g>
</g>
<g>
</g>
<g>
</g>
<g>
</g>
<g>
</g>
<g>
</g>
<g>
</g>
<g>
</g>
<g>
</g>
<g>
</g>
<g>
</g>
<g>
</g>
<g>
</g>
<g>
</g>
</svg>
